<?xml version="1.0" encoding="UTF-8" standalone="no"?>
<svg
   xmlns:dc="http://purl.org/dc/elements/1.1/"
   xmlns:cc="http://creativecommons.org/ns#"
   xmlns:rdf="http://www.w3.org/1999/02/22-rdf-syntax-ns#"
   xmlns:svg="http://www.w3.org/2000/svg"
   xmlns="http://www.w3.org/2000/svg"
   xmlns:sodipodi="http://sodipodi.sourceforge.net/DTD/sodipodi-0.dtd"
   xmlns:inkscape="http://www.inkscape.org/namespaces/inkscape"
   width="474.71494"
   height="732.65588"
   version="1.1"
   id="svg1620"
   sodipodi:docname="GTT_logo_cropped.svg"
   inkscape:version="1.0.2 (e86c870879, 2021-01-15, custom)">
  <metadata
     id="metadata1626">
    <rdf:RDF>
      <cc:Work
         rdf:about="">
        <dc:format>image/svg+xml</dc:format>
        <dc:type
           rdf:resource="http://purl.org/dc/dcmitype/StillImage" />
        <dc:title></dc:title>
      </cc:Work>
    </rdf:RDF>
  </metadata>
  <defs
     id="defs1624" />
  <sodipodi:namedview
     pagecolor="#ffffff"
     bordercolor="#666666"
     borderopacity="1"
     objecttolerance="10"
     gridtolerance="10"
     guidetolerance="10"
     inkscape:pageopacity="0"
     inkscape:pageshadow="2"
     inkscape:window-width="1600"
     inkscape:window-height="844"
     id="namedview1622"
     showgrid="false"
     inkscape:zoom="0.78375"
     inkscape:cx="138.85268"
     inkscape:cy="328.67769"
     inkscape:window-x="0"
     inkscape:window-y="0"
     inkscape:window-maximized="1"
     inkscape:current-layer="svg1620"
     inkscape:document-rotation="0"
     fit-margin-top="0"
     fit-margin-left="0"
     fit-margin-right="0"
     fit-margin-bottom="0" />
  <g
     id="g1638"
     transform="translate(-97.447312,-33.669598)">
    <path
       fill="#dcdcdc"
       fill-rule="evenodd"
       stroke="#000000"
       stroke-width="8"
       d="m 105.05,76.39 c -6.08,9.9 -4.2,482.43 3.65,501.05 6.2,14.75 205.6,180.45 216.06,184.88 134.81,-0.91 225.71,-50 240.82,-75.94 5.75,-32.62 0.87,-535.34 -4.64,-545.89 C 556.19,131.39 300.99,39.9 292.08,37.82 284.06,35.95 111.8,65.38 105.05,76.39 Z"
       id="path1598" />
    <path
       fill="#ffffff"
       fill-opacity="0.54"
       fill-rule="evenodd"
       d="m 114.82,86.15 c 66.21,28.02 139.53,73.2 213.39,108.86 69.98,-16.63 171.08,-38.86 222.02,-47.77 -65.58,20.37 -151.7,39.41 -217.29,59.78 -3.82,153.45 -1.97,385.95 -5.8,539.4 -1.9,-154.72 -7.18,-390.94 -9.09,-545.66 -70.67,-38.2 -140.2,-72.59 -203.23,-114.6 z"
       id="path1600" />
    <path
       fill-opacity="0.16"
       fill-rule="evenodd"
       d="m 525.49,591.69 c -24.23,34.82 -100.5,52.03 -136.72,37.95 6.27,-1.68 128.6,-35.3 136.72,-37.95 z"
       id="path1602" />
    <path
       fill="#ffffff"
       fill-opacity="0.39"
       fill-rule="evenodd"
       d="m 400.68,527.03 113.03,-43.55 c 11.61,4.12 9.33,21.32 9.33,21.32 l -17.61,6.15 c 0,0 -24.59,38.6 -68.28,23.5 0,0 -32.5,5.77 -36.47,-7.42 z"
       id="path1604" />
    <path
       fill="#606060"
       fill-rule="evenodd"
       d="m 401.69,512.36 112.58,-29.29 c 1.44,5.3 1.54,12.95 -0.7,16.92 -5.72,2.74 -17.13,5.01 -22.85,7.75 -16.47,15.76 -30.76,17.18 -56.97,14.9 -10.12,2.13 -20.23,3.78 -30.35,5.9 -3.09,-6.14 -3.97,-8.7 -1.71,-16.18 z"
       id="path1606" />
    <path
       fill="#ffffff"
       fill-opacity="0.5"
       fill-rule="evenodd"
       d="M 110.64,82.83 329.53,205.65 328.65,754.89 114.42,574.47 Z"
       id="path1608" />
    <path
       fill-opacity="0.16"
       fill-rule="evenodd"
       d="m 512.78,626.45 c -25.22,33.27 -75.7,39 -103.95,28.86 4.77,-1.28 97.78,-26.84 103.95,-28.86 z m -18.72,34.1 c -14.59,19.7 -42.78,25.79 -65.18,18.09 3,-0.8 61.31,-16.83 65.18,-18.1 z"
       id="path1610" />
    <path
       fill="#fcfcfc"
       fill-opacity="0.44"
       fill-rule="evenodd"
       d="m 533.18,184.9 11.15,1.52 2,262.44 -158.58,41.72 -17.67,-7.56 165.28,-44.07 z"
       id="path1612" />
    <path
       fill-opacity="0.23"
       fill-rule="evenodd"
       d="m 370.98,282.16 0.25,7.38 161.73,-46.65 z m -2.37,53.42 0.26,7.38 161.73,-46.65 z m 2.37,49.31 0.25,7.38 161.73,-46.65 z m 0,48.54 0.25,7.39 161.73,-46.65 z"
       color="#000000"
       font-family="'Bitstream Vera Sans'"
       overflow="visible"
       style="marker:none"
       id="path1614" />
    <path
       fill="none"
       stroke="#9e9e9e"
       stroke-width="6.98"
       d="m 532.32,189.67 -161.84,40.42 0.64,253.62"
       color="#000000"
       font-family="'Bitstream Vera Sans'"
       overflow="visible"
       style="marker:none"
       id="path1616" />
  </g>
  <path
     id="rect1544"
     style="fill:#ffffff;fill-opacity:1;fill-rule:evenodd;stroke:#000000;stroke-width:20.0001;stroke-miterlimit:4;stroke-dasharray:none;stroke-opacity:1"
     d="m 238.42166,338.17455 c 15.79028,15.68162 9.48715,49.63891 -19.74934,50.00644 -62.59552,0.66139 -112.79229,51.05461 -113.45387,113.51209 -0.39243,38.97214 -58.147704,36.67121 -57.751154,-0.93943 1.07664,-93.9412 76.457854,-169.36108 170.266104,-170.35345 8.94995,-0.11254 15.85449,2.97384 20.68826,7.77435 z m 77.44136,118.65398 c 2.37524,2.49676 3.90662,5.90364 3.91886,9.94569 l -0.66518,61.26611 23.88655,23.89883 c 5.6304,5.63329 5.65821,14.8236 0.0618,20.42289 l -47.48485,47.5092 c -5.59643,5.59931 -14.78203,5.5715 -20.41243,-0.0618 l -23.88657,-23.89882 -61.2347,0.66553 C 177.20337,596.4522 170.69257,580.94524 179.76558,571.86759 L 295.08592,456.48808 c 6.23768,-6.24088 15.55159,-5.15241 20.77706,0.34046 z M 239.8733,424.87574 c 15.79037,15.7113 9.49028,49.56912 -19.74622,49.93664 -15.64901,0.12286 -28.1989,12.67914 -28.32166,28.33619 -0.39293,38.80196 -58.06454,36.58472 -57.75281,-0.94107 0.53834,-46.97059 38.27216,-84.72379 85.13388,-85.17756 8.95008,-0.0727 15.85304,3.03622 20.68681,7.8458 z" />
</svg>
