<svg xmlns="http://www.w3.org/2000/svg" width="605.1" height="732.66">
  <path fill="#dcdcdc" fill-rule="evenodd" stroke="#000" stroke-width="8" d="M7.6 42.72c-6.08 9.9-4.2 482.43 3.65 501.05 6.21 14.74 205.6 180.45 216.06 184.88 134.82-.92 225.72-50 240.82-75.94 5.75-32.62.87-535.34-4.64-545.89-4.75-9.1-259.95-100.59-268.86-102.67C186.61 2.28 14.36 31.71 7.6 42.72z"/>
  <path fill="#fff" fill-opacity=".54" fill-rule="evenodd" d="M17.37 52.48c66.22 28.02 139.53 73.2 213.39 108.86 69.98-16.63 171.08-38.86 222.02-47.77-65.58 20.37-151.7 39.4-217.29 59.78-3.82 153.45-1.97 385.95-5.8 539.4-1.9-154.72-7.17-390.94-9.08-545.66-70.68-38.2-140.2-72.59-203.24-114.6z"/>
  <path fill-opacity=".16" fill-rule="evenodd" d="M428.04 558.01c-24.23 34.83-100.5 52.03-136.72 37.95 6.27-1.67 128.6-35.3 136.72-37.95z"/>
  <path fill="#fff" fill-opacity=".39" fill-rule="evenodd" d="M303.23 493.35l113.03-43.55c11.61 4.13 9.33 21.33 9.33 21.33l-17.61 6.15s-24.59 38.6-68.27 23.5c0 0-32.5 5.77-36.48-7.43z"/>
  <path fill="#606060" fill-rule="evenodd" d="M304.24 478.68l112.58-29.28c1.44 5.3 1.54 12.95-.7 16.92-5.72 2.74-17.12 5-22.85 7.75-16.47 15.76-30.76 17.18-56.96 14.9-10.12 2.13-20.24 3.78-30.36 5.9-3.09-6.15-3.97-8.7-1.71-16.19z"/>
  <path fill="#fff" fill-opacity=".5" fill-rule="evenodd" d="M13.2 49.16l218.88 122.82-.88 549.24L16.98 540.8z"/>
  <path fill-opacity=".16" fill-rule="evenodd" d="M415.34 592.78c-25.23 33.27-75.7 39-103.96 28.86 4.77-1.28 97.78-26.85 103.96-28.86zm-18.72 34.09c-14.6 19.7-42.79 25.8-65.19 18.1 3-.8 61.32-16.83 65.19-18.1z"/>
  <path fill="#fcfcfc" fill-opacity=".44" fill-rule="evenodd" d="M435.73 151.23l11.15 1.52 2 262.44-158.58 41.72-17.67-7.56 165.28-44.07z"/>
  <path fill-opacity=".23" fill-rule="evenodd" d="M273.53 248.49l.25 7.38 161.73-46.65zm-2.36 53.41l.25 7.39 161.73-46.65zm2.36 49.32l.25 7.38 161.73-46.65zm0 48.54l.25 7.38 161.73-46.65z" color="#000" font-family="Bitstream Vera Sans" overflow="visible" style="marker:none"/>
  <path fill="none" stroke="#9e9e9e" stroke-width="6.98" d="M434.87 156l-161.84 40.42.64 253.62" color="#000" font-family="Bitstream Vera Sans" overflow="visible" style="marker:none"/>
  <path fill-rule="evenodd" stroke="#fff" stroke-width="5" d="M379.49 148.08a49.9 49.9 0 0 0-3.62 3.16c-1.7 1.76-1.7 1.76-2.72 3.4-.3 1.16-.9 2.27-1.38 3.57-.18 1.34-.66 2.63-.76 4.18.09 2.22.09 2.22.5 5.47l1.1 3.1 2 3.32c.84.98 1.7 1.99 2.73 2.86a695.18 695.18 0 0 0 16.6 11.1l10.7 7.85c3.8 3 7.7 6.16 11.6 9.35 2.69 2.39 5.36 4.8 8.23 7.09 8.9 8.18 8.9 8.18 18.47 17.48a676.9 676.9 0 0 1 16.53 17.65c4.45 5.35 8.98 10.88 13.63 16.12a299.74 299.74 0 0 0 8.53 10.9c11.6 16.09 11.6 16.09 15.9 22.5 2.33 3.89 4.83 7.65 7.34 11.4l6.15 10.33c2.36 4.36 4.9 8.6 7.36 13.14 2.12 3.97 4.16 8.26 6.4 12.42 2.54 5.49 4.94 10.8 7.68 16.2a722.13 722.13 0 0 1 9.27 22.2c3.36 9 3.36 9 8.55 24.42 3.99 13.38 3.99 13.38 7.2 25.46 2.56 10.97 2.56 10.99 4.68 21.2.84 6.02 1.99 12.1 2.9 18.28 1.6 16.07 1.6 16.07 2.22 20.46.26.84.5 1.7.87 2.72l2.64 4.43c1.47 1.6 1.47 1.6 3.42 3.22.92.7 2.03 1.28 3.12 1.86 1.58.57 3.24.83 4.82 1.38 2.34.12 2.34.12 4.72-.05 2.48-.5 2.48-.47 4.36-1.1 1.1-.65 2.13-1.03 3.06-1.57.99-.86 1.92-1.4 2.74-2.15 1.06-1.12 2-2.45 2.98-3.77.66-1.4 1.2-3 2.07-4.5.02-.76.19-1.34.23-2.12.18-1.37.06-2.8.27-4.17-.7-5.34-1.1-10.6-1.6-16.05-.62-4.4-1.11-8.6-1.74-12.97-1.34-6.45-2.42-12.83-3.56-19.4-.85-3.5-1.8-7.17-2.46-10.78-3-11.74-3-11.74-6.65-24.55-1.6-4.8-3.23-9.57-4.63-14.47-6.08-16.9-6.08-16.9-9.9-26.62-4.7-11.22-4.7-11.2-10.92-24.98-4.1-8.56-4.1-8.56-14.9-29.14l-13.87-23.24-5.77-8.82c-7.56-10.98-7.56-10.98-13.25-18.83-9.07-11.85-9.07-11.85-16.62-21.1-4.5-5.04-8.72-10.05-12.95-15.03a419.57 419.57 0 0 1-11.11-11.87c-3.52-3.4-6.75-6.73-9.98-10.05-9.12-8.55-9.12-8.55-17.7-16.2-8.1-6.9-8.1-6.9-15.8-13.06-4.88-3.58-9.68-7-14.36-10.68-10.05-6.77-10.05-6.77-16.52-10.9-1.6-.56-2.7-1.14-4.1-1.82l-2.37-.6c-1.34-.18-2.6-.18-3.85-.2l-4.74.86c-3.06 1.57-3.06 1.57-3.17 1.39zm-37.95 52.44c-1.26 1.26-2.56 2.04-3.92 3.09-.7.92-1.5 2.14-2.31 2.87-.6 1.1-.6 1.1-2.27 5.38-.11 1.05-.15 1.84-.37 2.7.13 3.18.13 3.18.49 5.48.4 1.5.4 1.5 1.7 4.48.65 1.14 1.3 2.23 2.15 3.2.73.84 1.65 1.53 2.4 2.36 3.32 2.24 6.58 4.3 9.92 6.56 6.8 4.68 6.82 4.68 14.05 10.12 7.68 6.16 7.68 6.18 15.82 13.07 8.9 8.2 8.9 8.2 18.55 17.68 11.1 11.9 11.1 11.87 17.43 19.1 7.3 8.92 7.3 8.92 16.16 20.38 1.96 2.85 3.77 5.5 5.89 8.2 3.17 4.88 6.4 9.47 9.58 14.34l10.66 17.88a594.76 594.76 0 0 0 9.09 17.33c4 8.37 4 8.37 9.8 21.4 2.43 6.57 4.9 12.84 7.5 19.3 2.82 8.05 2.84 8.05 7.15 22 1.49 5.87 3.1 11.9 4.6 17.75a175 175 0 0 0 2.23 10.45c1.66 9.49 1.66 9.49 3.02 18.43.49 5.47.9 10.73 1.59 16.07.07.97.32 1.8.57 2.66.25.84.53 1.7.96 2.42l1.86 3.14c.86.99 1.7 2 2.73 2.9a61.7 61.7 0 0 1 3.76 2.5c1.7.73 1.67.73 5.22 1.63 1.44-.12 2.99-.04 4.52.03 2.48-.46 2.48-.46 5.87-1.5.8-.71 1.9-1.4 2.64-1.82.82-.75 1.37-1.07 1.99-1.7 1.77-2.06 1.8-2.06 3-3.8 1.17-2.21 1.17-2.21 1.78-4.55l.37-.22c.07-.3-.04-.47-.15-.67.26-.4.25-.88.48-1.27.03-1.26-.07-2.23.07-3.28-.6-7.65-.6-7.65-1.5-15.9-.72-4.54-1.45-9.11-2.07-13.51-1.77-9.7-1.8-9.7-4-20.11-1.06-3.87-1.84-7.68-2.8-11.36-1.25-4.23-2.37-8.58-3.65-12.81-1.6-4.8-3.32-9.77-4.74-14.68-2.28-5.88-4.24-11.72-6.4-17.43-1.64-3.53-2.96-7.02-4.28-10.46l-9.87-21.61c-2.16-3.98-4.1-8.06-6.2-12.04-2.26-4.18-4.68-8.23-6.8-12.22l-6.83-11.42-8.92-13.7c-6.7-9.5-6.7-9.5-16.43-22.46-2.63-3.16-5.17-6.17-7.64-9.44a615.26 615.26 0 0 1-12.84-14.82 408.2 408.2 0 0 1-10.76-11.33c-3.3-3.03-6.56-6.36-9.68-9.5a236.87 236.87 0 0 1-8.9-8.2c-2.87-2.3-5.56-4.7-8.23-7.08-7.68-6.16-7.7-6.16-15.04-11.77A486.6 486.6 0 0 1 366.7 205c-2.33-1.37-4.45-2.86-6.78-4.23a34.84 34.84 0 0 1-3.78-1.72l-2.37-.61c-1.34-.2-1.34-.2-6.06-.13-.86.27-1.7.52-2.84.7a19.18 19.18 0 0 1-3.36 1.5zM300.2 250.7l-2.82 2.43c-.94 1.33-.94 1.33-2.9 4.75l-1.38 3.56c-.02.79-.26 1.66-.28 2.44.08 1.44.1 2.7.2 4.12.08.96.44 1.98.69 2.84.36 1.04.8 1.77 1.17 2.8a22.99 22.99 0 0 0 3 4.2c1.16 1.09 2.48 2.04 3.8 3 3.33 2.26 6.59 4.32 9.93 6.57 7.03 5.07 7.03 5.07 14.59 11.05 2.69 2.4 5.56 4.68 8.25 7.1 2.9 2.75 5.99 5.42 8.9 8.18 3.33 3.5 6.75 6.72 10.1 10.23 3.89 4.4 8.08 8.93 11.98 13.35 2.52 2.97 5 6.28 7.53 9.25 3.4 4.47 6.55 8.85 9.96 13.33 2.94 4.48 6.05 8.89 8.99 13.37l9.7 16.24 5.93 11.2c4.54 9.3 4.54 9.3 10.46 22.52l5.7 14.6c.89 2.72 1.96 5.35 2.82 8.09 1.3 4.7 2.72 9.13 4.2 13.74 1.06 3.86 2.07 8.02 3.1 11.9a429.26 429.26 0 0 1 4.03 20.12c.5 4.19 1.12 8.58 1.64 12.77.28 2.59.38 5.28.66 7.87.7 2.82.7 2.82 1.66 5.25l1.44 2.4 2.4 2.8c.64.64 1.33.97 1.97 1.6a21.41 21.41 0 0 0 3.7 2.02c2.17.72 2.17.72 4.43 1.1 1.26.04 2.5.02 3.75.02 1.8-.32 3.5-.82 5.3-1.17a46.15 46.15 0 0 1 4.33-2.82 5.95 5.95 0 0 0 1.6-1.47c.72-.91 1.62-1.95 2.13-2.77.77-1.2 1.24-2.48 2.03-3.7.1-1.08.4-2.24.7-3.42.05-2.02-.02-4.25.02-6.27l-1.2-12.04-2.18-13.7c-.74-3.32-1.16-6.56-1.9-9.88-2.66-11.17-2.66-11.17-5.88-23.25L457 424.48c-3.5-9.2-3.5-9.17-8.08-20.2a388.63 388.63 0 0 1-6.54-14.34c-2.03-3.8-3.75-7.53-5.67-11.12-2.12-4-4.33-7.7-6.34-11.48l-6.5-10.9-8.36-12.75-8.83-12.25-12.23-15.46a156.67 156.67 0 0 1-6.53-7.6c-3.86-3.94-7.53-8.02-11.2-12.05-3.25-3.32-6.66-6.54-9.9-9.86-8.8-8-8.8-8-17.03-15.1-5-3.77-10-7.53-14.8-11.4a121.65 121.65 0 0 1-6.93-4.87c-6.46-4.16-6.46-4.16-10.86-6.52-1.2-.3-1.9-.62-4.13-1.03-1.73.03-3.28-.07-5.01-.02a22.68 22.68 0 0 0-5.1 1.53z"/>
</svg>
